<svg width="358" height="388" viewBox="0 0 358 388" fill="none" xmlns="http://www.w3.org/2000/svg">
<path d="M5.71188 100.867C4.31027 77.6 20.5063 57.1102 43.3975 53.7061C81.8822 47.9831 137.415 41 179 41C220.585 41 276.118 47.9831 314.603 53.7061C337.494 57.1102 353.69 77.5999 352.288 100.867L337.897 339.766C336.434 364.053 316.311 383 291.98 383H66.0202C41.6893 383 21.5665 364.053 20.1034 339.766L5.71188 100.867Z" fill="#94A3B8" stroke="white" stroke-width="10"/>
<path d="M248 73.5C248 82.9928 246.076 89.5225 243.047 94.1269C240.047 98.687 235.641 101.847 229.736 104.034C223.748 106.251 216.385 107.403 207.781 107.969C199.659 108.504 190.745 108.502 181.171 108.5C180.616 108.5 180.059 108.5 179.5 108.5C178.941 108.5 178.384 108.5 177.829 108.5C168.255 108.502 159.341 108.504 151.219 107.969C142.615 107.403 135.252 106.251 129.264 104.034C123.359 101.847 118.953 98.687 115.953 94.1269C112.924 89.5225 111 82.9928 111 73.5C111 35.6685 141.668 4.99998 179.5 4.99998C217.332 4.99998 248 35.6685 248 73.5Z" fill="white" stroke="#94A3B8" stroke-width="10"/>
<path fill-rule="evenodd" clip-rule="evenodd" d="M213.061 125.063C199.567 129.847 193.153 146.043 199.408 159.537C203.05 167.392 209.033 171.616 217.307 172.174C225.987 172.759 233.912 167.411 238.188 158.085C239.507 155.208 239.856 153.023 239.863 147.608C239.87 141.612 239.607 140.249 237.744 136.584C235.054 131.293 232.467 128.551 228.034 126.29C223.004 123.725 217.993 123.313 213.061 125.063ZM249.374 143.915C244.139 147.164 241.929 155.177 244.746 160.696C246.929 164.972 249.708 166.994 253.4 166.994C263.704 166.994 268.464 152.079 260.414 145.016C257.329 142.309 252.706 141.848 249.374 143.915ZM273.027 152.72C266.239 156.301 265.778 167.998 272.274 171.832C275.553 173.768 278.664 173.403 281.717 170.724C286.556 166.478 287.148 159.341 283.043 154.749C280.65 152.073 276.029 151.137 273.027 152.72ZM291.74 165.533C286.119 169.95 285.542 179.812 290.653 184.11C295.963 188.576 302.589 184.55 303.81 176.117C305.066 167.452 297.613 160.916 291.74 165.533ZM309.039 181.049C304.68 182.88 303.324 191.281 306.823 194.777C311.463 199.414 317.775 194.543 316.922 186.984C316.313 181.593 313.244 179.282 309.039 181.049ZM229.678 181.46C217.96 183.083 210.111 187.813 206.737 195.284C205.227 198.631 204.927 200.513 204.946 206.526C204.973 214.856 206 219.595 209.697 228.436C214.715 240.441 225.164 256.738 225.164 256.738C228.604 263.652 228.589 273.092 228.589 273.092C228.589 273.092 226.827 285.07 222.432 290.913C206.777 309.859 202.337 320.451 204.55 333.568C209.417 362.402 243.717 373.068 263.237 351.816C268.274 346.332 270.615 341.452 272.381 332.758C274.493 322.353 275.417 319.42 283.644 296.995C296.801 261.134 300.19 250.559 303.137 236.177C305.215 226.037 305.207 220.947 303.104 214.016C297.95 197.031 280.207 184.234 258.55 181.882C251.015 181.064 234.302 180.82 229.678 181.46Z" fill="#D4D4D8"/>
<path fill-rule="evenodd" clip-rule="evenodd" d="M144.939 125.063C158.433 129.847 164.847 146.043 158.592 159.537C154.95 167.392 148.967 171.616 140.693 172.174C132.013 172.759 124.088 167.411 119.812 158.085C118.493 155.208 118.144 153.023 118.137 147.608C118.13 141.612 118.393 140.249 120.256 136.584C122.946 131.293 125.533 128.551 129.966 126.29C134.996 123.725 140.007 123.313 144.939 125.063ZM108.626 143.915C113.861 147.164 116.071 155.177 113.254 160.696C111.071 164.972 108.292 166.994 104.6 166.994C94.2962 166.994 89.5362 152.079 97.5857 145.016C100.671 142.309 105.294 141.848 108.626 143.915ZM84.9733 152.72C91.7607 156.301 92.2217 167.998 85.7264 171.832C82.4468 173.768 79.3361 173.403 76.2832 170.724C71.4441 166.478 70.8515 159.341 74.9573 154.749C77.3498 152.073 81.9714 151.137 84.9733 152.72ZM66.2596 165.533C71.8808 169.95 72.4582 179.812 67.3475 184.11C62.0367 188.576 55.4106 184.55 54.1896 176.117C52.9344 167.452 60.3874 160.916 66.2596 165.533ZM48.961 181.049C53.3201 182.88 54.6757 191.281 51.177 194.777C46.5372 199.414 40.2253 194.543 41.0781 186.984C41.6867 181.593 44.7563 179.282 48.961 181.049ZM128.322 181.46C140.04 183.083 147.889 187.813 151.263 195.284C152.773 198.631 153.073 200.513 153.054 206.526C153.027 214.856 152 219.595 148.303 228.436C143.285 240.441 132.836 256.738 132.836 256.738C129.396 263.652 129.411 273.092 129.411 273.092C129.411 273.092 131.173 285.07 135.568 290.913C151.223 309.859 155.663 320.451 153.45 333.568C148.583 362.402 114.283 373.068 94.7633 351.816C89.7257 346.332 87.3848 341.452 85.6191 332.758C83.5065 322.353 82.583 319.42 74.3555 296.995C61.1991 261.134 57.81 250.559 54.8629 236.177C52.7853 226.037 52.7929 220.947 54.8956 214.016C60.0497 197.031 77.7933 184.234 99.4503 181.882C106.985 181.064 123.698 180.82 128.322 181.46Z" fill="#D4D4D8"/>
<circle cx="179" cy="83" r="8" fill="#64748B"/>
<rect x="174" y="41" width="10" height="40" rx="5" fill="#64748B"/>
<path fill-rule="evenodd" clip-rule="evenodd" d="M176 11C176 9.34315 177.343 8 179 8C180.657 8 182 9.34315 182 11V17C182 18.6569 180.657 20 179 20C177.343 20 176 18.6569 176 17V11ZM117 78C115.343 78 114 76.6569 114 75C114 73.3431 115.343 72 117 72H123C124.657 72 126 73.3431 126 75C126 76.6569 124.657 78 123 78H117ZM234 75C234 76.6569 235.343 78 237 78H243C244.657 78 246 76.6569 246 75C246 73.3431 244.657 72 243 72H237C235.343 72 234 73.3431 234 75ZM119.063 56.0921C117.515 55.5025 116.738 53.7694 117.327 52.221C117.917 50.6725 119.65 49.8952 121.198 50.4847L126.806 52.6195C128.354 53.2091 129.131 54.9422 128.542 56.4907C127.952 58.0391 126.219 58.8164 124.671 58.2269L119.063 56.0921ZM230.17 55.2941C230.599 56.8945 232.244 57.8442 233.845 57.4154L239.64 55.8625C241.241 55.4337 242.19 53.7887 241.761 52.1883C241.333 50.5879 239.688 49.6381 238.087 50.0669L232.292 51.6199C230.691 52.0487 229.742 53.6937 230.17 55.2941ZM130.496 33.8477C129.278 32.7238 129.202 30.8258 130.326 29.6084C131.45 28.391 133.348 28.3152 134.565 29.4391L138.974 33.509C140.191 34.6329 140.267 36.5308 139.143 37.7483C138.02 38.9657 136.122 39.0415 134.904 37.9176L130.496 33.8477ZM219.961 37.2832C220.979 38.5907 222.864 38.8257 224.171 37.8081L228.906 34.123C230.214 33.1054 230.449 31.2205 229.431 29.913C228.414 28.6055 226.529 28.3704 225.221 29.388L220.486 33.0731C219.179 34.0907 218.944 35.9756 219.961 37.2832ZM149.432 18.4822C148.72 16.9859 149.356 15.1961 150.853 14.4846C152.349 13.773 154.139 14.4092 154.85 15.9055L157.427 21.324C158.139 22.8203 157.502 24.6101 156.006 25.3216C154.51 26.0332 152.72 25.397 152.009 23.9007L149.432 18.4822ZM208.357 14.4737C206.922 13.6453 205.087 14.1369 204.258 15.5718L201.258 20.7679C200.43 22.2028 200.922 24.0376 202.357 24.866C203.791 25.6944 205.626 25.2028 206.455 23.7679L209.455 18.5718C210.283 17.1369 209.791 15.3021 208.357 14.4737Z" fill="#94A3B8"/>
</svg>
