<svg width="1300" height="534" viewBox="0 0 1300 534" fill="none" xmlns="http://www.w3.org/2000/svg">
<path d="M567.15 211.188C567.15 230.01 567.629 258.322 568.586 296.125C569.543 333.928 570.021 362.24 570.021 381.062C570.021 384.252 569.304 386.245 567.868 387.043C567.549 387.202 565.476 387.521 561.647 388C551.28 389.276 537.403 389.914 520.017 389.914C496.729 389.914 481.895 389.276 475.515 388C470.889 387.043 468.576 384.571 468.576 380.583C468.576 383.135 469.294 369.099 470.729 338.474C473.601 273.874 475.036 231.446 475.036 211.188C475.036 194.121 474.478 168.521 473.361 134.387C472.245 100.253 471.687 74.652 471.687 57.585C471.687 54.0758 473.521 52.3213 477.189 52.3213C482.134 52.3213 489.551 52.5605 499.44 53.0391C509.489 53.5176 516.986 53.7568 521.931 53.7568C526.875 53.7568 534.133 53.5176 543.703 53.0391C553.433 52.5605 560.77 52.3213 565.715 52.3213C570.34 52.3213 572.653 54.0758 572.653 57.585C572.653 74.652 571.696 100.253 569.782 134.387C568.028 168.521 567.15 194.121 567.15 211.188ZM972.692 380.583C972.692 385.528 970.38 388 965.754 388H881.057C876.431 388 874.118 385.209 874.118 379.626C874.118 363.516 874.676 339.351 875.793 307.131C877.069 274.911 877.707 250.746 877.707 234.636C877.707 230.01 876.989 227.538 875.554 227.219C873.799 228.176 863.112 252.819 843.493 301.149C832.009 329.541 820.524 357.854 809.04 386.086C807.445 389.755 805.451 391.908 803.059 392.546C802.261 392.705 799.071 392.785 793.488 392.785C785.194 392.785 780.249 391.19 778.654 388C770.041 370.454 758.716 344.934 744.68 311.438C729.686 276.027 718.441 250.427 710.944 234.636C710.625 233.838 709.908 232.961 708.791 232.004C707.674 233.439 707.116 235.752 707.116 238.942C707.116 254.574 707.515 278.021 708.312 309.284C709.11 340.547 709.509 363.994 709.509 379.626C709.509 385.209 707.276 388 702.81 388H622.897C619.707 388 617.714 387.521 616.916 386.564C616.278 385.448 615.959 383.614 615.959 381.062C615.959 363.675 616.757 337.596 618.352 302.824C620.106 267.893 620.983 241.734 620.983 224.348C620.983 205.845 620.186 171.153 618.591 120.271C618.431 107.032 617.714 87.3327 616.438 61.1738L616.198 57.1064C616.039 53.9163 619.388 52.3213 626.247 52.3213C635.02 52.3213 648.179 52.082 665.725 51.6035C683.27 50.9655 696.429 50.6465 705.202 50.6465C706.957 50.6465 709.429 53.9961 712.619 60.6953L782.482 214.06C787.427 224.427 791.574 229.611 794.924 229.611C796.678 229.611 800.427 223.63 806.169 211.667C822.279 178.171 846.125 127.688 877.707 60.2168C880.419 53.9961 883.369 50.8857 886.56 50.8857C891.185 50.8857 898.124 51.125 907.375 51.6035C916.786 52.082 923.884 52.3213 928.669 52.3213C932.657 52.3213 938.718 51.9225 946.853 51.125C955.147 50.3275 961.288 49.9287 965.275 49.9287C970.061 49.9287 972.453 51.8428 972.453 55.6709C972.453 74.4925 971.735 102.645 970.3 140.129C969.024 177.453 968.386 205.526 968.386 224.348C968.386 241.734 969.104 267.813 970.539 302.585C971.975 337.357 972.692 363.356 972.692 380.583ZM1296.89 333.928C1296.89 336.48 1295.21 339.829 1291.86 343.977C1262.51 378.908 1223.51 396.374 1174.87 396.374C1125.1 396.374 1084.74 379.387 1053.8 345.412C1023.65 312.554 1008.58 271.083 1008.58 220.998C1008.58 172.508 1023.34 131.356 1052.84 97.541C1083.63 62.1309 1122.79 44.4258 1170.32 44.4258C1222 44.4258 1262.51 60.2965 1291.86 92.0381C1295.05 95.5472 1296.65 98.6576 1296.65 101.369C1296.65 104.4 1291.06 115.645 1279.9 135.104C1268.89 154.564 1261.96 165.49 1259.08 167.883C1257.81 169.159 1256.21 169.797 1254.3 169.797C1253.5 169.797 1249.51 166.607 1242.34 160.227C1233.72 152.57 1225.27 146.589 1216.97 142.282C1204.37 135.902 1191.29 132.712 1177.74 132.712C1154.29 132.712 1135.55 141.485 1121.51 159.03C1108.59 175.3 1102.13 195.397 1102.13 219.323C1102.13 243.568 1108.59 263.905 1121.51 280.334C1135.55 298.199 1154.29 307.131 1177.74 307.131C1191.61 307.131 1204.77 304.1 1217.21 298.039C1225.35 294.051 1233.64 288.469 1242.1 281.291C1249.11 275.23 1253.02 272.199 1253.82 272.199C1255.42 272.199 1257.01 273.076 1258.61 274.831C1261.16 277.702 1268.1 287.671 1279.42 304.738C1291.06 322.443 1296.89 332.173 1296.89 333.928Z" fill="white"/>
<path d="M32.1006 496.72C32.1006 500.369 32.1934 505.858 32.3789 513.188C32.5645 520.517 32.6572 526.006 32.6572 529.655C32.6572 530.273 32.5181 530.66 32.2397 530.814C32.1779 530.845 31.7759 530.907 31.0337 531C29.0236 531.247 26.3332 531.371 22.9624 531.371C18.4474 531.371 15.5715 531.247 14.3345 531C13.4377 530.814 12.9893 530.335 12.9893 529.562C12.9893 530.057 13.1284 527.335 13.4067 521.398C13.9634 508.874 14.2417 500.648 14.2417 496.72C14.2417 493.411 14.1335 488.448 13.917 481.83C13.7005 475.212 13.5923 470.249 13.5923 466.94C13.5923 466.26 13.9479 465.919 14.6592 465.919C15.6178 465.919 17.0558 465.966 18.9731 466.059C20.9214 466.151 22.3748 466.198 23.3335 466.198C24.2922 466.198 25.6992 466.151 27.5547 466.059C29.4411 465.966 30.8636 465.919 31.8223 465.919C32.7191 465.919 33.1675 466.26 33.1675 466.94C33.1675 470.249 32.9819 475.212 32.6108 481.83C32.2707 488.448 32.1006 493.411 32.1006 496.72ZM14.1953 464.064C13.6077 464.095 13.314 463.77 13.314 463.09C13.314 462.842 13.3449 462.456 13.4067 461.93C13.4686 461.404 13.4995 461.002 13.4995 460.724C13.4995 460.353 13.4377 459.781 13.314 459.008C13.2212 458.235 13.1748 457.663 13.1748 457.292C13.1748 456.859 13.4995 456.518 14.1489 456.271C15.6642 455.683 18.6021 454.153 22.9624 451.679C24.8488 450.318 27.7093 448.292 31.5439 445.602C31.7295 445.447 32.0387 445.293 32.4717 445.138C32.6882 445.2 32.951 445.355 33.2603 445.602C33.9715 446.344 35.1003 447.396 36.6465 448.756C37.5124 449.251 38.7803 450.04 40.4502 451.122C40.945 451.462 41.1924 451.771 41.1924 452.05C41.1924 452.297 40.9759 452.622 40.543 453.024C37.8216 455.591 33.7396 458.034 28.2969 460.353C22.8542 462.641 18.2928 463.878 14.6128 464.064H14.1953ZM103.629 467.357C103.629 470.883 103.474 476.186 103.165 483.268C102.887 490.319 102.748 495.622 102.748 499.179V529.748C102.748 530.583 102.299 531 101.402 531C100.66 531 99.5314 531.031 98.0161 531.093C96.5317 531.155 95.4185 531.186 94.6763 531.186C93.8722 531.186 92.6662 531.124 91.0581 531C89.45 530.876 88.244 530.814 87.4399 530.814C86.8833 530.814 86.2184 530.304 85.4453 529.284C83.2188 526.284 78.209 519.635 70.416 509.337C68.2822 506.461 65.0352 502.225 60.6748 496.627C60.5511 496.442 60.3192 496.256 59.979 496.071C59.7316 496.287 59.6079 496.627 59.6079 497.091C59.6079 500.679 59.7007 506.059 59.8862 513.234C60.1027 520.408 60.2109 525.789 60.2109 529.376C60.2109 530.459 59.7935 531 58.9585 531H42.9087C42.0119 531 41.5635 530.521 41.5635 529.562C41.5635 526.222 41.7181 521.181 42.0273 514.44C42.3675 507.698 42.5376 502.642 42.5376 499.271C42.5376 495.715 42.383 490.396 42.0737 483.314C41.7954 476.233 41.6562 470.929 41.6562 467.404C41.6562 466.723 42.2593 466.383 43.4653 466.383C45.259 466.383 47.4701 466.26 50.0986 466.012C50.7171 465.95 51.9386 465.749 53.7632 465.409C55.3094 465.131 56.5309 464.992 57.4277 464.992C57.7988 464.992 58.3709 465.517 59.144 466.569L76.4463 490.272C77.9925 492.406 80.3273 495.53 83.4507 499.643C84.2238 500.601 84.8887 501.081 85.4453 501.081C85.8473 501.081 86.0483 499.875 86.0483 497.462C86.0483 494.215 85.8628 489.329 85.4917 482.804C85.1515 476.279 84.9814 471.378 84.9814 468.1C84.9814 466.955 85.3062 466.383 85.9556 466.383C87.811 466.383 90.6097 466.306 94.3516 466.151C98.0934 465.997 100.892 465.919 102.748 465.919C103.335 465.919 103.629 466.399 103.629 467.357ZM172.792 498.112C172.792 507.204 169.869 515.089 164.024 521.769C158.86 527.737 151.608 530.876 142.269 531.186C140.475 531.247 135.543 531.278 127.472 531.278C125.956 531.278 123.668 531.232 120.606 531.139C117.576 531.046 115.303 531 113.788 531C112.891 531 112.442 530.644 112.442 529.933C112.442 526.531 112.566 521.429 112.813 514.625C113.092 507.791 113.231 502.673 113.231 499.271C113.231 495.715 113.092 490.396 112.813 483.314C112.566 476.202 112.442 470.883 112.442 467.357C112.442 466.708 112.891 466.321 113.788 466.198C115.983 465.95 119.586 465.827 124.596 465.827C134.12 465.827 140.29 465.966 143.104 466.244C150.433 466.986 156.17 468.842 160.313 471.811C164.21 474.594 167.287 478.49 169.544 483.5C171.709 488.231 172.792 493.102 172.792 498.112ZM155.025 498.112C155.025 492.886 153.464 488.618 150.34 485.309C147.186 481.876 143.011 480.16 137.816 480.16C133.054 480.16 130.672 480.794 130.672 482.062C130.672 483.887 130.641 486.639 130.58 490.319C130.518 493.968 130.487 496.705 130.487 498.529C130.487 500.323 130.518 503.029 130.58 506.647C130.641 510.234 130.672 512.94 130.672 514.765C130.672 516.094 133.146 516.759 138.094 516.759C143.444 516.759 147.65 514.981 150.711 511.425C153.587 508.054 155.025 503.616 155.025 498.112ZM198.814 496.72C198.814 500.369 198.907 505.858 199.093 513.188C199.278 520.517 199.371 526.006 199.371 529.655C199.371 530.273 199.232 530.66 198.954 530.814C198.892 530.845 198.49 530.907 197.748 531C195.737 531.247 193.047 531.371 189.676 531.371C185.161 531.371 182.285 531.247 181.048 531C180.152 530.814 179.703 530.335 179.703 529.562C179.703 530.057 179.842 527.335 180.121 521.398C180.677 508.874 180.956 500.648 180.956 496.72C180.956 493.411 180.847 488.448 180.631 481.83C180.414 475.212 180.306 470.249 180.306 466.94C180.306 466.26 180.662 465.919 181.373 465.919C182.332 465.919 183.77 465.966 185.687 466.059C187.635 466.151 189.089 466.198 190.047 466.198C191.006 466.198 192.413 466.151 194.269 466.059C196.155 465.966 197.577 465.919 198.536 465.919C199.433 465.919 199.881 466.26 199.881 466.94C199.881 470.249 199.696 475.212 199.325 481.83C198.985 488.448 198.814 493.411 198.814 496.72ZM262.457 520.517C262.457 521.011 262.132 521.661 261.483 522.465C255.793 529.237 248.232 532.624 238.8 532.624C229.151 532.624 221.327 529.33 215.328 522.743C209.483 516.373 206.561 508.332 206.561 498.622C206.561 489.221 209.422 481.243 215.143 474.687C221.111 467.821 228.703 464.389 237.918 464.389C247.938 464.389 255.793 467.466 261.483 473.62C262.101 474.3 262.411 474.903 262.411 475.429C262.411 476.016 261.328 478.196 259.164 481.969C257.03 485.742 255.685 487.86 255.128 488.324C254.881 488.572 254.571 488.695 254.2 488.695C254.046 488.695 253.272 488.077 251.881 486.84C250.211 485.355 248.572 484.196 246.964 483.361C244.521 482.124 241.985 481.505 239.356 481.505C234.811 481.505 231.177 483.206 228.456 486.608C225.951 489.762 224.698 493.659 224.698 498.297C224.698 502.998 225.951 506.941 228.456 510.126C231.177 513.59 234.811 515.321 239.356 515.321C242.047 515.321 244.598 514.734 247.01 513.559C248.587 512.785 250.195 511.703 251.834 510.312C253.195 509.136 253.953 508.549 254.107 508.549C254.417 508.549 254.726 508.719 255.035 509.059C255.53 509.616 256.875 511.549 259.071 514.857C261.328 518.29 262.457 520.176 262.457 520.517ZM314.967 516.574C314.967 517.903 314.704 520.347 314.178 523.903C313.622 527.768 313.127 530.072 312.694 530.814C312.323 531.402 311.812 531.696 311.163 531.696C310.885 531.696 310.421 531.649 309.771 531.557C307.514 531.247 300.927 531.093 290.011 531.093C287.63 531.093 284.089 531.077 279.388 531.046C274.688 531.015 271.162 531 268.812 531C267.792 531 267.281 530.552 267.281 529.655C267.281 526.191 267.467 520.996 267.838 514.069C268.24 507.111 268.441 501.9 268.441 498.437C268.441 494.911 268.255 488.34 267.884 478.722C267.792 476.248 267.621 472.553 267.374 467.636L267.328 466.986C267.266 466.275 267.652 465.919 268.487 465.919C270.776 465.919 274.208 465.981 278.785 466.105C283.393 466.229 286.841 466.291 289.129 466.291C291.387 466.291 294.789 466.229 299.334 466.105C303.88 465.981 307.282 465.919 309.54 465.919C311.148 465.919 312.075 466.522 312.323 467.729C312.477 468.44 312.709 470.604 313.019 474.223C313.359 477.81 313.529 479.99 313.529 480.763C313.529 481.413 313.22 481.737 312.601 481.737C312.416 481.737 312.091 481.722 311.627 481.691C303.401 481.011 296.01 480.67 289.454 480.67C287.815 480.67 286.81 481.057 286.439 481.83C286.284 482.201 286.207 483.392 286.207 485.402C286.207 487.505 286.516 488.896 287.135 489.577C287.66 490.164 288.666 490.458 290.15 490.458C290.459 490.458 291.062 490.443 291.959 490.412C292.856 490.35 293.598 490.319 294.186 490.319C298.082 490.319 302.025 490.211 306.014 489.994C306.354 489.963 307.205 489.886 308.565 489.762C309.617 489.639 310.452 489.577 311.07 489.577C311.812 489.577 312.184 489.932 312.184 490.644C312.184 489.994 311.905 492.36 311.349 497.741C311.101 500.215 310.978 502.689 310.978 505.163C310.978 505.781 310.529 506.09 309.632 506.09C309.632 506.09 308.241 505.936 305.458 505.626C303.695 505.441 299.675 505.348 293.397 505.348H288.48C287.212 505.348 286.47 505.657 286.253 506.276C286.222 506.431 286.207 507.389 286.207 509.152C286.207 511.502 286.362 513.017 286.671 513.698C287.197 514.873 289.176 515.569 292.608 515.785C292.547 515.785 294.804 515.785 299.381 515.785C301.02 515.785 303.447 515.646 306.664 515.368C309.911 515.058 312.338 514.904 313.946 514.904C314.627 514.904 314.967 515.46 314.967 516.574ZM405.467 498.112C405.467 507.204 402.545 515.089 396.7 521.769C391.536 527.737 384.284 530.876 374.945 531.186C373.151 531.247 368.219 531.278 360.147 531.278C358.632 531.278 356.344 531.232 353.282 531.139C350.252 531.046 347.979 531 346.463 531C345.567 531 345.118 530.644 345.118 529.933C345.118 526.531 345.242 521.429 345.489 514.625C345.768 507.791 345.907 502.673 345.907 499.271C345.907 495.715 345.768 490.396 345.489 483.314C345.242 476.202 345.118 470.883 345.118 467.357C345.118 466.708 345.567 466.321 346.463 466.198C348.659 465.95 352.262 465.827 357.271 465.827C366.796 465.827 372.966 465.966 375.78 466.244C383.109 466.986 388.845 468.842 392.989 471.811C396.886 474.594 399.963 478.49 402.22 483.5C404.385 488.231 405.467 493.102 405.467 498.112ZM387.701 498.112C387.701 492.886 386.139 488.618 383.016 485.309C379.862 481.876 375.687 480.16 370.492 480.16C365.729 480.16 363.348 480.794 363.348 482.062C363.348 483.887 363.317 486.639 363.255 490.319C363.194 493.968 363.163 496.705 363.163 498.529C363.163 500.323 363.194 503.029 363.255 506.647C363.317 510.234 363.348 512.94 363.348 514.765C363.348 516.094 365.822 516.759 370.77 516.759C376.12 516.759 380.326 514.981 383.387 511.425C386.263 508.054 387.701 503.616 387.701 498.112ZM460.157 516.574C460.157 517.903 459.894 520.347 459.369 523.903C458.812 527.768 458.317 530.072 457.884 530.814C457.513 531.402 457.003 531.696 456.354 531.696C456.075 531.696 455.611 531.649 454.962 531.557C452.704 531.247 446.118 531.093 435.201 531.093C432.82 531.093 429.279 531.077 424.579 531.046C419.878 531.015 416.353 531 414.002 531C412.982 531 412.472 530.552 412.472 529.655C412.472 526.191 412.657 520.996 413.028 514.069C413.43 507.111 413.631 501.9 413.631 498.437C413.631 494.911 413.446 488.34 413.075 478.722C412.982 476.248 412.812 472.553 412.564 467.636L412.518 466.986C412.456 466.275 412.843 465.919 413.678 465.919C415.966 465.919 419.399 465.981 423.976 466.105C428.583 466.229 432.031 466.291 434.32 466.291C436.577 466.291 439.979 466.229 444.525 466.105C449.071 465.981 452.472 465.919 454.73 465.919C456.338 465.919 457.266 466.522 457.513 467.729C457.668 468.44 457.9 470.604 458.209 474.223C458.549 477.81 458.719 479.99 458.719 480.763C458.719 481.413 458.41 481.737 457.792 481.737C457.606 481.737 457.281 481.722 456.817 481.691C448.591 481.011 441.201 480.67 434.645 480.67C433.006 480.67 432 481.057 431.629 481.83C431.475 482.201 431.397 483.392 431.397 485.402C431.397 487.505 431.707 488.896 432.325 489.577C432.851 490.164 433.856 490.458 435.34 490.458C435.65 490.458 436.253 490.443 437.149 490.412C438.046 490.35 438.788 490.319 439.376 490.319C443.272 490.319 447.215 490.211 451.205 489.994C451.545 489.963 452.395 489.886 453.756 489.762C454.807 489.639 455.642 489.577 456.261 489.577C457.003 489.577 457.374 489.932 457.374 490.644C457.374 489.994 457.096 492.36 456.539 497.741C456.292 500.215 456.168 502.689 456.168 505.163C456.168 505.781 455.72 506.09 454.823 506.09C454.823 506.09 453.431 505.936 450.648 505.626C448.885 505.441 444.865 505.348 438.587 505.348H433.67C432.403 505.348 431.66 505.657 431.444 506.276C431.413 506.431 431.397 507.389 431.397 509.152C431.397 511.502 431.552 513.017 431.861 513.698C432.387 514.873 434.366 515.569 437.799 515.785C437.737 515.785 439.994 515.785 444.571 515.785C446.21 515.785 448.638 515.646 451.854 515.368C455.101 515.058 457.529 514.904 459.137 514.904C459.817 514.904 460.157 515.46 460.157 516.574ZM559.286 529.562C559.286 530.521 558.837 531 557.94 531H541.52C540.623 531 540.174 530.459 540.174 529.376C540.174 526.253 540.283 521.568 540.499 515.321C540.746 509.075 540.87 504.389 540.87 501.266C540.87 500.369 540.731 499.89 540.453 499.828C540.112 500.014 538.041 504.792 534.237 514.162C532.01 519.666 529.784 525.155 527.557 530.629C527.248 531.34 526.861 531.758 526.397 531.881C526.243 531.912 525.624 531.928 524.542 531.928C522.934 531.928 521.975 531.618 521.666 531C519.996 527.598 517.8 522.65 515.079 516.156C512.172 509.291 509.992 504.328 508.539 501.266C508.477 501.111 508.338 500.941 508.121 500.756C507.905 501.034 507.796 501.483 507.796 502.101C507.796 505.132 507.874 509.678 508.028 515.739C508.183 521.8 508.26 526.346 508.26 529.376C508.26 530.459 507.827 531 506.961 531H491.468C490.85 531 490.463 530.907 490.309 530.722C490.185 530.505 490.123 530.15 490.123 529.655C490.123 526.284 490.278 521.228 490.587 514.486C490.927 507.714 491.097 502.642 491.097 499.271C491.097 495.684 490.943 488.958 490.633 479.093C490.602 476.527 490.463 472.707 490.216 467.636L490.169 466.847C490.139 466.229 490.788 465.919 492.118 465.919C493.819 465.919 496.37 465.873 499.771 465.78C503.173 465.657 505.724 465.595 507.425 465.595C507.765 465.595 508.245 466.244 508.863 467.543L522.408 497.277C523.367 499.287 524.171 500.292 524.82 500.292C525.16 500.292 525.887 499.132 527 496.813C530.124 490.319 534.747 480.531 540.87 467.45C541.396 466.244 541.968 465.641 542.586 465.641C543.483 465.641 544.828 465.688 546.622 465.78C548.447 465.873 549.823 465.919 550.75 465.919C551.524 465.919 552.699 465.842 554.276 465.688C555.884 465.533 557.075 465.456 557.848 465.456C558.775 465.456 559.239 465.827 559.239 466.569C559.239 470.218 559.1 475.676 558.822 482.943C558.574 490.18 558.451 495.622 558.451 499.271C558.451 502.642 558.59 507.698 558.868 514.44C559.146 521.181 559.286 526.222 559.286 529.562ZM629.144 529.84C629.144 530.397 628.757 530.784 627.984 531C627.057 531.247 624.181 531.371 619.356 531.371C614.934 531.371 612.089 531.247 610.821 531C609.77 530.784 609.105 530.088 608.827 528.913C607.775 524.459 606.956 522.078 606.368 521.769C605.873 521.553 601.729 521.444 593.937 521.444C588.679 521.444 585.881 521.583 585.541 521.862C585.015 522.357 584.427 524.011 583.778 526.825C583.19 529.392 582.479 530.784 581.644 531C580.593 531.247 577.067 531.371 571.068 531.371C566.336 531.371 563.971 530.923 563.971 530.026C563.971 529.222 567.465 519.341 574.454 500.385C582.031 479.882 586.144 468.61 586.793 466.569C587.164 465.394 587.597 464.806 588.092 464.806C588.927 464.806 590.21 464.883 591.942 465.038C593.705 465.193 595.019 465.27 595.885 465.27C596.72 465.27 597.941 465.224 599.549 465.131C601.188 465.007 602.41 464.945 603.214 464.945C603.801 464.945 604.343 465.456 604.837 466.476C606.353 469.723 610.775 480.856 618.104 499.875C625.464 519.017 629.144 529.005 629.144 529.84ZM596.256 487.582C595.606 488.943 594.509 491.896 592.962 496.442C591.292 501.266 590.458 504.096 590.458 504.931C590.458 505.487 591.385 505.797 593.241 505.858C594.199 505.92 595.777 505.951 597.972 505.951C600.013 505.951 601.142 505.704 601.358 505.209C601.42 505.054 601.451 504.838 601.451 504.56C601.451 503.539 600.74 500.725 599.317 496.117C597.926 491.664 596.905 488.819 596.256 487.582ZM665.558 509.662C665.558 515.94 662.914 521.321 657.625 525.805C652.987 529.763 647.343 532.283 640.694 533.366C640.447 533.397 640.246 533.412 640.091 533.412C639.38 533.412 637.803 531.247 635.36 526.918C632.917 522.558 631.695 519.898 631.695 518.939C631.695 518.599 631.927 518.383 632.391 518.29C636.875 517.27 639.844 516.404 641.297 515.692C644.514 514.084 646.122 511.703 646.122 508.549C646.122 506.539 645.07 504.297 642.967 501.823C639.318 497.617 637.339 495.282 637.03 494.818C634.896 491.602 633.829 488.046 633.829 484.149C633.829 478.49 636.442 473.79 641.668 470.048C645.936 466.955 651.178 464.945 657.394 464.018C657.734 463.987 657.997 463.971 658.182 463.971C658.646 463.971 659.017 464.342 659.295 465.084C660.099 467.342 661.97 471.424 664.908 477.331C665.001 477.516 665.047 477.671 665.047 477.794C665.047 478.32 664.769 478.583 664.212 478.583C663.965 478.583 663.548 478.537 662.96 478.444C662.372 478.351 661.924 478.305 661.615 478.305C659.388 478.305 657.44 478.815 655.77 479.835C653.76 481.011 652.755 482.65 652.755 484.752C652.755 486.639 653.868 488.958 656.095 491.71C660.022 496.658 662.079 499.256 662.264 499.503C664.46 502.905 665.558 506.291 665.558 509.662ZM704.894 509.662C704.894 515.94 702.25 521.321 696.961 525.805C692.323 529.763 686.679 532.283 680.03 533.366C679.783 533.397 679.582 533.412 679.427 533.412C678.716 533.412 677.139 531.247 674.696 526.918C672.253 522.558 671.031 519.898 671.031 518.939C671.031 518.599 671.263 518.383 671.727 518.29C676.211 517.27 679.18 516.404 680.633 515.692C683.849 514.084 685.458 511.703 685.458 508.549C685.458 506.539 684.406 504.297 682.303 501.823C678.654 497.617 676.675 495.282 676.366 494.818C674.232 491.602 673.165 488.046 673.165 484.149C673.165 478.49 675.778 473.79 681.004 470.048C685.272 466.955 690.514 464.945 696.729 464.018C697.07 463.987 697.333 463.971 697.518 463.971C697.982 463.971 698.353 464.342 698.631 465.084C699.435 467.342 701.306 471.424 704.244 477.331C704.337 477.516 704.383 477.671 704.383 477.794C704.383 478.32 704.105 478.583 703.548 478.583C703.301 478.583 702.883 478.537 702.296 478.444C701.708 478.351 701.26 478.305 700.951 478.305C698.724 478.305 696.776 478.815 695.106 479.835C693.096 481.011 692.091 482.65 692.091 484.752C692.091 486.639 693.204 488.958 695.431 491.71C699.358 496.658 701.415 499.256 701.6 499.503C703.796 502.905 704.894 506.291 704.894 509.662ZM773.778 529.84C773.778 530.397 773.391 530.784 772.618 531C771.69 531.247 768.814 531.371 763.99 531.371C759.568 531.371 756.723 531.247 755.455 531C754.404 530.784 753.739 530.088 753.46 528.913C752.409 524.459 751.59 522.078 751.002 521.769C750.507 521.553 746.363 521.444 738.57 521.444C733.313 521.444 730.514 521.583 730.174 521.862C729.649 522.357 729.061 524.011 728.412 526.825C727.824 529.392 727.113 530.784 726.278 531C725.226 531.247 721.701 531.371 715.702 531.371C710.97 531.371 708.604 530.923 708.604 530.026C708.604 529.222 712.099 519.341 719.088 500.385C726.664 479.882 730.777 468.61 731.427 466.569C731.798 465.394 732.231 464.806 732.726 464.806C733.561 464.806 734.844 464.883 736.576 465.038C738.338 465.193 739.653 465.27 740.519 465.27C741.354 465.27 742.575 465.224 744.183 465.131C745.822 465.007 747.044 464.945 747.848 464.945C748.435 464.945 748.976 465.456 749.471 466.476C750.986 469.723 755.409 480.856 762.738 499.875C770.098 519.017 773.778 529.005 773.778 529.84ZM740.89 487.582C740.24 488.943 739.142 491.896 737.596 496.442C735.926 501.266 735.091 504.096 735.091 504.931C735.091 505.487 736.019 505.797 737.875 505.858C738.833 505.92 740.41 505.951 742.606 505.951C744.647 505.951 745.776 505.704 745.992 505.209C746.054 505.054 746.085 504.838 746.085 504.56C746.085 503.539 745.374 500.725 743.951 496.117C742.56 491.664 741.539 488.819 740.89 487.582ZM856.485 520.517C856.485 521.011 856.161 521.661 855.511 522.465C849.821 529.237 842.26 532.624 832.828 532.624C823.18 532.624 815.356 529.33 809.356 522.743C803.512 516.373 800.589 508.332 800.589 498.622C800.589 489.221 803.45 481.243 809.171 474.687C815.139 467.821 822.731 464.389 831.947 464.389C841.966 464.389 849.821 467.466 855.511 473.62C856.13 474.3 856.439 474.903 856.439 475.429C856.439 476.016 855.357 478.196 853.192 481.969C851.058 485.742 849.713 487.86 849.156 488.324C848.909 488.572 848.6 488.695 848.229 488.695C848.074 488.695 847.301 488.077 845.909 486.84C844.239 485.355 842.6 484.196 840.992 483.361C838.549 482.124 836.013 481.505 833.385 481.505C828.839 481.505 825.205 483.206 822.484 486.608C819.979 489.762 818.727 493.659 818.727 498.297C818.727 502.998 819.979 506.941 822.484 510.126C825.205 513.59 828.839 515.321 833.385 515.321C836.075 515.321 838.626 514.734 841.039 513.559C842.616 512.785 844.224 511.703 845.863 510.312C847.223 509.136 847.981 508.549 848.136 508.549C848.445 508.549 848.754 508.719 849.063 509.059C849.558 509.616 850.903 511.549 853.099 514.857C855.357 518.29 856.485 520.176 856.485 520.517ZM925.926 498.529C925.926 508.178 922.849 516.264 916.695 522.79C910.418 529.407 902.47 532.716 892.853 532.716C883.297 532.716 875.365 529.376 869.056 522.697C862.871 516.172 859.779 508.116 859.779 498.529C859.779 488.912 862.871 480.825 869.056 474.269C875.365 467.558 883.297 464.203 892.853 464.203C902.346 464.203 910.263 467.558 916.603 474.269C922.818 480.887 925.926 488.974 925.926 498.529ZM908.346 498.437C908.346 493.798 906.939 489.855 904.125 486.608C901.187 483.206 897.429 481.505 892.853 481.505C888.492 481.505 884.797 483.268 881.766 486.793C878.828 490.195 877.359 494.107 877.359 498.529C877.359 503.261 878.736 507.204 881.488 510.358C884.395 513.667 888.183 515.321 892.853 515.321C897.213 515.321 900.924 513.574 903.985 510.08C906.892 506.74 908.346 502.859 908.346 498.437ZM988.131 530.536C988.131 530.753 987.822 530.907 987.203 531C986.028 531.186 983.075 531.278 978.343 531.278C974.292 531.278 971.54 531.186 970.086 531C969.406 530.907 969.02 530.83 968.927 530.768C968.741 530.675 968.525 530.366 968.277 529.84C967.813 528.634 967.133 526.841 966.236 524.459C965.03 521.367 963.144 516.806 960.577 510.775C960.021 509.569 958.737 508.904 956.727 508.781C957.655 508.843 956.062 508.874 951.949 508.874C951.485 508.874 951.253 509.662 951.253 511.239C951.253 513.342 951.439 516.481 951.81 520.656C952.212 524.831 952.413 527.969 952.413 530.072C952.413 530.598 952.274 530.907 951.996 531C951.563 531.031 951.13 531.062 950.697 531.093C948.872 531.216 946.027 531.278 942.162 531.278C937.739 531.278 935.08 531.186 934.183 531C933.286 530.814 932.838 530.335 932.838 529.562C932.838 526.16 932.993 521.027 933.302 514.162C933.642 507.296 933.812 502.147 933.812 498.715C933.812 485.634 933.518 475.429 932.931 468.1L932.884 467.45C932.853 466.924 933.333 466.569 934.322 466.383C935.343 466.198 940.074 466.012 948.517 465.827C954.238 465.703 958.799 465.641 962.201 465.641C969.251 465.641 975.003 467.234 979.457 470.419C984.497 474.006 987.018 479.186 987.018 485.958C987.018 490.473 986.368 494.076 985.069 496.767C983.771 499.457 981.374 502.07 977.879 504.606C977.168 505.101 976.812 505.565 976.812 505.998C976.812 505.967 978.699 509.848 982.472 517.641C986.244 525.434 988.131 529.732 988.131 530.536ZM968.648 488.927C968.648 485.154 967.411 482.541 964.938 481.088C963.02 479.975 960.021 479.418 955.938 479.418C953.001 479.418 951.439 479.866 951.253 480.763C951.068 481.815 950.975 484.845 950.975 489.855C950.975 490.566 950.991 491.618 951.021 493.009C951.052 494.401 951.068 495.437 951.068 496.117C951.068 496.272 951.563 496.426 952.552 496.581C954.439 496.859 956.418 496.999 958.49 496.999C965.262 496.999 968.648 494.308 968.648 488.927ZM1048.99 490.736C1048.99 498.22 1047.03 504.281 1043.1 508.92C1038.89 513.837 1033.1 516.295 1025.7 516.295C1024.47 516.295 1022.6 516.234 1020.09 516.11C1017.62 515.955 1015.76 515.878 1014.52 515.878C1013.2 515.878 1012.53 516.45 1012.53 517.594C1012.53 519.017 1012.67 521.135 1012.95 523.949C1013.23 526.763 1013.37 528.866 1013.37 530.258C1013.37 530.969 1013.04 531.325 1012.39 531.325C1010.5 531.325 1007.68 531.263 1003.9 531.139C1000.13 531.046 997.3 531 995.414 531C994.517 531 994.068 530.552 994.068 529.655C994.068 526.222 994.115 521.073 994.208 514.208C994.331 507.312 994.393 502.147 994.393 498.715C994.393 489.005 993.976 478.799 993.141 468.1L993.094 467.45C993.032 466.863 993.496 466.507 994.486 466.383C996.898 466.074 1002.22 465.919 1010.44 465.919C1015.3 465.919 1019.95 465.981 1024.41 466.105C1031.73 466.321 1037.64 468.625 1042.12 473.017C1046.7 477.532 1048.99 483.438 1048.99 490.736ZM1030.48 491.479C1030.48 484.273 1026.97 480.67 1019.95 480.67C1015 480.67 1012.41 480.949 1012.16 481.505C1011.94 481.907 1011.83 485.479 1011.83 492.221C1011.83 493.179 1011.87 494.602 1011.93 496.488C1012.02 498.344 1012.07 499.751 1012.07 500.709C1012.07 501.328 1014.85 501.637 1020.42 501.637C1027.13 501.637 1030.48 498.251 1030.48 491.479ZM1119.82 498.529C1119.82 508.178 1116.75 516.264 1110.59 522.79C1104.31 529.407 1096.37 532.716 1086.75 532.716C1077.19 532.716 1069.26 529.376 1062.95 522.697C1056.77 516.172 1053.68 508.116 1053.68 498.529C1053.68 488.912 1056.77 480.825 1062.95 474.269C1069.26 467.558 1077.19 464.203 1086.75 464.203C1096.24 464.203 1104.16 467.558 1110.5 474.269C1116.71 480.887 1119.82 488.974 1119.82 498.529ZM1102.24 498.437C1102.24 493.798 1100.84 489.855 1098.02 486.608C1095.08 483.206 1091.33 481.505 1086.75 481.505C1082.39 481.505 1078.69 483.268 1075.66 486.793C1072.72 490.195 1071.26 494.107 1071.26 498.529C1071.26 503.261 1072.63 507.204 1075.38 510.358C1078.29 513.667 1082.08 515.321 1086.75 515.321C1091.11 515.321 1094.82 513.574 1097.88 510.08C1100.79 506.74 1102.24 502.859 1102.24 498.437ZM1182.03 530.536C1182.03 530.753 1181.72 530.907 1181.1 531C1179.92 531.186 1176.97 531.278 1172.24 531.278C1168.19 531.278 1165.44 531.186 1163.98 531C1163.3 530.907 1162.92 530.83 1162.82 530.768C1162.64 530.675 1162.42 530.366 1162.17 529.84C1161.71 528.634 1161.03 526.841 1160.13 524.459C1158.93 521.367 1157.04 516.806 1154.47 510.775C1153.92 509.569 1152.63 508.904 1150.62 508.781C1151.55 508.843 1149.96 508.874 1145.85 508.874C1145.38 508.874 1145.15 509.662 1145.15 511.239C1145.15 513.342 1145.34 516.481 1145.71 520.656C1146.11 524.831 1146.31 527.969 1146.31 530.072C1146.31 530.598 1146.17 530.907 1145.89 531C1145.46 531.031 1145.03 531.062 1144.59 531.093C1142.77 531.216 1139.92 531.278 1136.06 531.278C1131.64 531.278 1128.98 531.186 1128.08 531C1127.18 530.814 1126.73 530.335 1126.73 529.562C1126.73 526.16 1126.89 521.027 1127.2 514.162C1127.54 507.296 1127.71 502.147 1127.71 498.715C1127.71 485.634 1127.41 475.429 1126.83 468.1L1126.78 467.45C1126.75 466.924 1127.23 466.569 1128.22 466.383C1129.24 466.198 1133.97 466.012 1142.41 465.827C1148.13 465.703 1152.7 465.641 1156.1 465.641C1163.15 465.641 1168.9 467.234 1173.35 470.419C1178.39 474.006 1180.91 479.186 1180.91 485.958C1180.91 490.473 1180.26 494.076 1178.97 496.767C1177.67 499.457 1175.27 502.07 1171.78 504.606C1171.06 505.101 1170.71 505.565 1170.71 505.998C1170.71 505.967 1172.6 509.848 1176.37 517.641C1180.14 525.434 1182.03 529.732 1182.03 530.536ZM1162.54 488.927C1162.54 485.154 1161.31 482.541 1158.83 481.088C1156.92 479.975 1153.92 479.418 1149.83 479.418C1146.9 479.418 1145.34 479.866 1145.15 480.763C1144.96 481.815 1144.87 484.845 1144.87 489.855C1144.87 490.566 1144.89 491.618 1144.92 493.009C1144.95 494.401 1144.96 495.437 1144.96 496.117C1144.96 496.272 1145.46 496.426 1146.45 496.581C1148.34 496.859 1150.31 496.999 1152.39 496.999C1159.16 496.999 1162.54 494.308 1162.54 488.927ZM1248.5 529.84C1248.5 530.397 1248.11 530.784 1247.34 531C1246.41 531.247 1243.54 531.371 1238.71 531.371C1234.29 531.371 1231.44 531.247 1230.18 531C1229.13 530.784 1228.46 530.088 1228.18 528.913C1227.13 524.459 1226.31 522.078 1225.72 521.769C1225.23 521.553 1221.08 521.444 1213.29 521.444C1208.03 521.444 1205.24 521.583 1204.9 521.862C1204.37 522.357 1203.78 524.011 1203.13 526.825C1202.55 529.392 1201.83 530.784 1201 531C1199.95 531.247 1196.42 531.371 1190.42 531.371C1185.69 531.371 1183.33 530.923 1183.33 530.026C1183.33 529.222 1186.82 519.341 1193.81 500.385C1201.39 479.882 1205.5 468.61 1206.15 466.569C1206.52 465.394 1206.95 464.806 1207.45 464.806C1208.28 464.806 1209.57 464.883 1211.3 465.038C1213.06 465.193 1214.37 465.27 1215.24 465.27C1216.08 465.27 1217.3 465.224 1218.9 465.131C1220.54 465.007 1221.77 464.945 1222.57 464.945C1223.16 464.945 1223.7 465.456 1224.19 466.476C1225.71 469.723 1230.13 480.856 1237.46 499.875C1244.82 519.017 1248.5 529.005 1248.5 529.84ZM1215.61 487.582C1214.96 488.943 1213.86 491.896 1212.32 496.442C1210.65 501.266 1209.81 504.096 1209.81 504.931C1209.81 505.487 1210.74 505.797 1212.6 505.858C1213.55 505.92 1215.13 505.951 1217.33 505.951C1219.37 505.951 1220.5 505.704 1220.71 505.209C1220.78 505.054 1220.81 504.838 1220.81 504.56C1220.81 503.539 1220.1 500.725 1218.67 496.117C1217.28 491.664 1216.26 488.819 1215.61 487.582ZM1295.91 531.789C1293.25 531.789 1289.78 531.727 1285.52 531.603C1279.95 531.479 1276.49 531.402 1275.13 531.371L1261.26 531.186C1259.86 531.216 1257.87 531.155 1255.27 531C1254.38 530.845 1253.93 530.366 1253.93 529.562C1253.93 526.191 1253.97 521.151 1254.07 514.44C1254.19 507.698 1254.25 502.642 1254.25 499.271C1254.25 495.684 1254.14 490.319 1253.93 483.175C1253.71 476.001 1253.6 470.62 1253.6 467.033C1253.6 466.352 1254.07 466.012 1254.99 466.012C1255.92 466.012 1257.3 466.059 1259.12 466.151C1260.98 466.244 1262.35 466.291 1263.25 466.291C1264.27 466.291 1265.79 466.244 1267.8 466.151C1269.81 466.028 1271.32 465.966 1272.34 465.966C1272.81 465.966 1273.02 466.26 1272.99 466.847L1272.95 467.45C1272.57 473.264 1272.16 482 1271.69 493.659L1271.65 505.905C1271.65 509.863 1271.66 512.755 1271.69 514.579C1271.72 514.95 1271.75 515.321 1271.79 515.692C1271.82 516.063 1272.05 516.295 1272.48 516.388C1272.51 516.388 1272.91 516.388 1273.69 516.388C1276.47 516.388 1280.63 516.249 1286.17 515.971C1291.73 515.661 1295.91 515.507 1298.69 515.507C1299.52 515.507 1299.94 515.862 1299.94 516.574C1299.94 521.862 1299.56 526.423 1298.78 530.258C1298.63 531.062 1298.3 531.541 1297.81 531.696C1297.65 531.758 1297.02 531.789 1295.91 531.789Z" fill="#94A3B8"/>
<path d="M5.71188 100.867C4.31027 77.6 20.5063 57.1102 43.3975 53.7061C81.8822 47.9831 137.415 41 179 41C220.585 41 276.118 47.9831 314.603 53.7061C337.494 57.1102 353.69 77.5999 352.288 100.867L337.897 339.766C336.434 364.053 316.311 383 291.98 383H66.0202C41.6893 383 21.5665 364.053 20.1034 339.766L5.71188 100.867Z" fill="#94A3B8" stroke="white" stroke-width="10"/>
<path d="M248 73.5C248 82.9928 246.076 89.5225 243.047 94.1269C240.047 98.687 235.641 101.847 229.736 104.034C223.748 106.251 216.385 107.403 207.781 107.969C199.659 108.504 190.745 108.502 181.171 108.5C180.616 108.5 180.059 108.5 179.5 108.5C178.941 108.5 178.384 108.5 177.829 108.5C168.255 108.502 159.341 108.504 151.219 107.969C142.615 107.403 135.252 106.251 129.264 104.034C123.359 101.847 118.953 98.687 115.953 94.1269C112.924 89.5225 111 82.9928 111 73.5C111 35.6685 141.668 4.99998 179.5 4.99998C217.332 4.99998 248 35.6685 248 73.5Z" fill="white" stroke="#94A3B8" stroke-width="10"/>
<path fill-rule="evenodd" clip-rule="evenodd" d="M213.061 125.063C199.567 129.847 193.153 146.043 199.408 159.537C203.05 167.392 209.033 171.616 217.307 172.174C225.987 172.759 233.912 167.411 238.188 158.085C239.507 155.208 239.856 153.023 239.863 147.608C239.87 141.612 239.607 140.249 237.744 136.584C235.054 131.293 232.467 128.551 228.034 126.29C223.004 123.725 217.993 123.313 213.061 125.063ZM249.374 143.915C244.139 147.164 241.929 155.177 244.746 160.696C246.929 164.972 249.708 166.994 253.4 166.994C263.704 166.994 268.464 152.079 260.414 145.016C257.329 142.309 252.706 141.848 249.374 143.915ZM273.027 152.72C266.239 156.301 265.778 167.998 272.274 171.832C275.553 173.768 278.664 173.403 281.717 170.724C286.556 166.478 287.148 159.341 283.043 154.749C280.65 152.073 276.029 151.137 273.027 152.72ZM291.74 165.533C286.119 169.95 285.542 179.812 290.653 184.11C295.963 188.576 302.589 184.55 303.81 176.117C305.066 167.452 297.613 160.916 291.74 165.533ZM309.039 181.049C304.68 182.88 303.324 191.281 306.823 194.777C311.463 199.414 317.775 194.543 316.922 186.984C316.313 181.593 313.244 179.282 309.039 181.049ZM229.678 181.46C217.96 183.083 210.111 187.813 206.737 195.284C205.227 198.631 204.927 200.513 204.946 206.526C204.973 214.856 206 219.595 209.697 228.436C214.715 240.441 225.164 256.738 225.164 256.738C228.604 263.652 228.589 273.092 228.589 273.092C228.589 273.092 226.827 285.07 222.432 290.913C206.777 309.859 202.337 320.451 204.55 333.568C209.417 362.402 243.717 373.068 263.237 351.816C268.274 346.332 270.615 341.452 272.381 332.758C274.493 322.353 275.417 319.42 283.644 296.995C296.801 261.134 300.19 250.559 303.137 236.177C305.215 226.037 305.207 220.947 303.104 214.016C297.95 197.031 280.207 184.234 258.55 181.882C251.015 181.064 234.302 180.82 229.678 181.46Z" fill="#D4D4D8"/>
<path fill-rule="evenodd" clip-rule="evenodd" d="M144.939 125.063C158.433 129.847 164.847 146.043 158.592 159.537C154.95 167.392 148.967 171.616 140.693 172.174C132.013 172.759 124.088 167.411 119.812 158.085C118.493 155.208 118.144 153.023 118.137 147.608C118.13 141.612 118.393 140.249 120.256 136.584C122.946 131.293 125.533 128.551 129.966 126.29C134.996 123.725 140.007 123.313 144.939 125.063ZM108.626 143.915C113.861 147.164 116.071 155.177 113.254 160.696C111.071 164.972 108.292 166.994 104.6 166.994C94.2962 166.994 89.5362 152.079 97.5857 145.016C100.671 142.309 105.294 141.848 108.626 143.915ZM84.9733 152.72C91.7607 156.301 92.2217 167.998 85.7264 171.832C82.4468 173.768 79.3361 173.403 76.2832 170.724C71.4441 166.478 70.8515 159.341 74.9573 154.749C77.3498 152.073 81.9714 151.137 84.9733 152.72ZM66.2596 165.533C71.8808 169.95 72.4582 179.812 67.3475 184.11C62.0367 188.576 55.4106 184.55 54.1896 176.117C52.9344 167.452 60.3874 160.916 66.2596 165.533ZM48.961 181.049C53.3201 182.88 54.6757 191.281 51.177 194.777C46.5372 199.414 40.2253 194.543 41.0781 186.984C41.6867 181.593 44.7563 179.282 48.961 181.049ZM128.322 181.46C140.04 183.083 147.889 187.813 151.263 195.284C152.773 198.631 153.073 200.513 153.054 206.526C153.027 214.856 152 219.595 148.303 228.436C143.285 240.441 132.836 256.738 132.836 256.738C129.396 263.652 129.411 273.092 129.411 273.092C129.411 273.092 131.173 285.07 135.568 290.913C151.223 309.859 155.663 320.451 153.45 333.568C148.583 362.402 114.283 373.068 94.7633 351.816C89.7257 346.332 87.3848 341.452 85.6191 332.758C83.5065 322.353 82.583 319.42 74.3555 296.995C61.1991 261.134 57.81 250.559 54.8629 236.177C52.7853 226.037 52.7929 220.947 54.8956 214.016C60.0497 197.031 77.7933 184.234 99.4503 181.882C106.985 181.064 123.698 180.82 128.322 181.46Z" fill="#D4D4D8"/>
<circle cx="179" cy="83" r="8" fill="#64748B"/>
<rect x="174" y="41" width="10" height="40" rx="5" fill="#64748B"/>
<path fill-rule="evenodd" clip-rule="evenodd" d="M176 11C176 9.34315 177.343 8 179 8C180.657 8 182 9.34315 182 11V17C182 18.6569 180.657 20 179 20C177.343 20 176 18.6569 176 17V11ZM117 78C115.343 78 114 76.6569 114 75C114 73.3431 115.343 72 117 72H123C124.657 72 126 73.3431 126 75C126 76.6569 124.657 78 123 78H117ZM234 75C234 76.6569 235.343 78 237 78H243C244.657 78 246 76.6569 246 75C246 73.3431 244.657 72 243 72H237C235.343 72 234 73.3431 234 75ZM119.063 56.0921C117.515 55.5025 116.738 53.7694 117.327 52.221C117.917 50.6725 119.65 49.8952 121.198 50.4847L126.806 52.6195C128.354 53.2091 129.131 54.9422 128.542 56.4907C127.952 58.0391 126.219 58.8164 124.671 58.2269L119.063 56.0921ZM230.17 55.2941C230.599 56.8945 232.244 57.8442 233.845 57.4154L239.64 55.8625C241.241 55.4337 242.19 53.7887 241.761 52.1883C241.333 50.5879 239.688 49.6381 238.087 50.0669L232.292 51.6199C230.691 52.0487 229.742 53.6937 230.17 55.2941ZM130.496 33.8477C129.278 32.7238 129.202 30.8258 130.326 29.6084C131.45 28.391 133.348 28.3152 134.565 29.4391L138.974 33.509C140.191 34.6329 140.267 36.5308 139.143 37.7483C138.02 38.9657 136.122 39.0415 134.904 37.9176L130.496 33.8477ZM219.961 37.2832C220.979 38.5907 222.864 38.8257 224.171 37.8081L228.906 34.123C230.214 33.1054 230.449 31.2205 229.431 29.913C228.414 28.6055 226.529 28.3704 225.221 29.388L220.486 33.0731C219.179 34.0907 218.944 35.9756 219.961 37.2832ZM149.432 18.4822C148.72 16.9859 149.356 15.1961 150.853 14.4846C152.349 13.773 154.139 14.4092 154.85 15.9055L157.427 21.324C158.139 22.8203 157.502 24.6101 156.006 25.3216C154.51 26.0332 152.72 25.397 152.009 23.9007L149.432 18.4822ZM208.357 14.4737C206.922 13.6453 205.087 14.1369 204.258 15.5718L201.258 20.7679C200.43 22.2028 200.922 24.0376 202.357 24.866C203.791 25.6944 205.626 25.2028 206.455 23.7679L209.455 18.5718C210.283 17.1369 209.791 15.3021 208.357 14.4737Z" fill="#94A3B8"/>
</svg>
